<svg width="185" height="114" viewBox="0 0 185 114" fill="none" xmlns="http://www.w3.org/2000/svg">
<path d="M107.934 56.9127L127.42 18.6441C127.793 17.9126 128.702 17.6172 129.45 17.9846L160.345 33.7267C171.193 39.268 175.546 52.6646 170.026 63.524C164.084 75.1847 149.681 79.8645 138.02 73.9228L108.589 58.9262C107.857 58.5535 107.562 57.6441 107.934 56.9127Z" fill="#1A86C6"/>
<path d="M19.1779 53.4363C22.2713 47.889 27.3207 43.8821 33.3831 42.1604L68.0072 32.3398L80.948 77.9505L46.324 87.7711C40.2616 89.4928 33.8598 88.7381 28.3125 85.6447C22.7652 82.5513 18.7583 77.5019 17.0366 71.4395C15.3148 65.3771 16.0845 58.9836 19.1779 53.4363ZM16.9411 52.189C13.6648 58.0644 12.617 65.202 14.5893 72.147C18.5341 86.0372 33.1331 94.178 47.0381 90.2416L84.1094 79.7134L69.7551 29.1701L32.6839 39.6983C25.7239 41.6624 20.2257 46.2987 16.9411 52.189Z" fill="#8FC641"/>
<path d="M158.578 74.9678C152.528 76.9006 146.103 76.3719 140.502 73.4831L108.522 56.9751L130.265 14.844L162.246 31.352C167.847 34.2408 172.002 39.1688 173.935 45.219C175.868 51.2693 175.339 57.6937 172.45 63.2947C169.561 68.8958 164.628 73.0349 158.578 74.9678ZM159.357 77.4074C165.765 75.3602 171.41 70.8682 174.72 64.4517C181.339 51.6187 176.252 35.6961 163.414 29.061L129.164 11.396L105.079 58.0929L139.329 75.7579C145.751 79.0835 152.933 79.4597 159.357 77.4074Z" fill="#1A86C6"/>
<g filter="url(#filter0_f_219_253)">
<ellipse cx="91" cy="104.5" rx="87" ry="5.5" fill="#1A86C6" fill-opacity="0.34"/>
</g>
<defs>
<filter id="filter0_f_219_253" x="0" y="95" width="182" height="19" filterUnits="userSpaceOnUse" color-interpolation-filters="sRGB">
<feFlood flood-opacity="0" result="BackgroundImageFix"/>
<feBlend mode="normal" in="SourceGraphic" in2="BackgroundImageFix" result="shape"/>
<feGaussianBlur stdDeviation="2" result="effect1_foregroundBlur_219_253"/>
</filter>
</defs>
</svg>
