<svg width="22" height="22" viewBox="0 0 22 22" fill="none" xmlns="http://www.w3.org/2000/svg">
<path d="M11.4381 21.12C5.85734 21.12 1.31641 16.5808 1.31641 11C1.31641 5.41922 5.85734 0.880005 11.4381 0.880005C13.9664 0.880005 16.3864 1.81672 18.2547 3.51829L18.595 3.82938L15.2572 7.16719L14.9478 6.9025C13.9681 6.06376 12.722 5.60141 11.4381 5.60141C8.46125 5.60141 6.03781 8.02313 6.03781 11C6.03781 13.9769 8.46125 16.3986 11.4381 16.3986C13.5848 16.3986 15.2813 15.302 16.0805 13.4338H10.9981V8.87735L20.9205 8.8911L20.9944 9.24C21.5117 11.6961 21.0975 15.3089 19.0006 17.8939C17.2647 20.0338 14.7209 21.12 11.4381 21.12Z" fill="white"/>
</svg>
