<svg width="20" height="21" viewBox="0 0 20 21" fill="none" xmlns="http://www.w3.org/2000/svg">
<path fill-rule="evenodd" clip-rule="evenodd" d="M10 0.690674C7.284 0.690674 6.944 0.702004 5.87733 0.750674C4.81267 0.799344 4.08533 0.968674 3.44933 1.216C2.78267 1.46667 2.178 1.86 1.678 2.36934C1.16948 2.86876 0.77591 3.473 0.52467 4.14C0.27867 4.776 0.10867 5.504 0.0599999 6.56867C0.0119999 7.63467 0 7.974 0 10.6907C0 13.4074 0.0113299 13.7467 0.0599999 14.8134C0.10867 15.878 0.278 16.6054 0.52533 17.2414C0.776 17.908 1.16933 18.5127 1.67867 19.0127C2.1781 19.5212 2.78234 19.9148 3.44933 20.166C4.08533 20.4127 4.81267 20.582 5.87733 20.6307C6.944 20.6794 7.284 20.6907 10 20.6907C12.716 20.6907 13.056 20.6794 14.1227 20.6307C15.1873 20.582 15.9147 20.4127 16.5507 20.1654C17.2173 19.9147 17.822 19.5214 18.322 19.012C18.8305 18.5126 19.2241 17.9084 19.4753 17.2414C19.722 16.6054 19.8913 15.878 19.94 14.8134C19.9887 13.7467 20 13.4067 20 10.6907C20 7.97467 19.9887 7.63467 19.94 6.568C19.8913 5.50334 19.722 4.776 19.4747 4.14C19.2236 3.47271 18.83 2.86822 18.3213 2.36867C17.8219 1.86015 17.2177 1.46658 16.5507 1.21534C15.9147 0.969344 15.1867 0.799344 14.122 0.750674C13.056 0.702674 12.7167 0.690674 10 0.690674ZM10 2.49267C12.67 2.49267 12.9867 2.50267 14.0413 2.55067C15.016 2.59534 15.5453 2.75734 15.898 2.89534C16.3647 3.076 16.698 3.29334 17.048 3.64267C17.398 3.99267 17.6147 4.326 17.7953 4.79267C17.9327 5.14534 18.0953 5.67467 18.14 6.64934C18.188 7.704 18.198 8.02067 18.198 10.6907C18.198 13.3607 18.188 13.6774 18.14 14.732C18.0953 15.7067 17.9333 16.236 17.7953 16.5887C17.6353 17.0231 17.3799 17.416 17.048 17.7387C16.7254 18.0707 16.3324 18.3261 15.898 18.486C15.5453 18.6234 15.016 18.786 14.0413 18.8307C12.9867 18.8787 12.6707 18.8887 10 18.8887C7.32933 18.8887 7.01333 18.8787 5.95867 18.8307C4.984 18.786 4.45467 18.624 4.102 18.486C3.66764 18.326 3.27467 18.0706 2.952 17.7387C2.62012 17.416 2.36475 17.023 2.20467 16.5887C2.06733 16.236 1.90467 15.7067 1.86 14.732C1.812 13.6774 1.802 13.3607 1.802 10.6907C1.802 8.02067 1.812 7.704 1.86 6.64934C1.90467 5.67467 2.06667 5.14534 2.20467 4.79267C2.38533 4.326 2.60267 3.99267 2.952 3.64267C3.27463 3.3107 3.66761 3.05532 4.102 2.89534C4.45467 2.758 4.984 2.59534 5.95867 2.55067C7.01333 2.50267 7.33 2.49267 10 2.49267Z" fill="white"/>
<path fill-rule="evenodd" clip-rule="evenodd" d="M10 14.0273C9.5618 14.0273 9.128 13.941 8.7231 13.7733C8.3183 13.6056 7.95047 13.3598 7.64064 13.05C7.3308 12.7401 7.08502 12.3723 6.91734 11.9675C6.74965 11.5627 6.66335 11.1288 6.66335 10.6906C6.66335 10.2524 6.74965 9.81854 6.91734 9.41374C7.08502 9.00894 7.3308 8.6411 7.64064 8.33126C7.95047 8.02142 8.3183 7.77565 8.7231 7.60796C9.128 7.44028 9.5618 7.35397 10 7.35397C10.885 7.35397 11.7336 7.70551 12.3594 8.33126C12.9851 8.95704 13.3367 9.80574 13.3367 10.6906C13.3367 11.5755 12.9851 12.4242 12.3594 13.05C11.7336 13.6757 10.885 14.0273 10 14.0273ZM10 5.55064C8.6368 5.55064 7.32942 6.09217 6.36549 7.05611C5.40155 8.02005 4.86002 9.32744 4.86002 10.6906C4.86002 12.0538 5.40155 13.3612 6.36549 14.3251C7.32942 15.2891 8.6368 15.8306 10 15.8306C11.3632 15.8306 12.6706 15.2891 13.6345 14.3251C14.5985 13.3612 15.14 12.0538 15.14 10.6906C15.14 9.32744 14.5985 8.02005 13.6345 7.05611C12.6706 6.09217 11.3632 5.55064 10 5.55064ZM16.6353 5.45731C16.6353 5.77954 16.5073 6.08858 16.2795 6.31644C16.0516 6.5443 15.7426 6.67231 15.4204 6.67231C15.0981 6.67231 14.7891 6.5443 14.5612 6.31644C14.3334 6.08858 14.2053 5.77954 14.2053 5.45731C14.2053 5.13507 14.3334 4.82603 14.5612 4.59817C14.7891 4.37032 15.0981 4.24231 15.4204 4.24231C15.7426 4.24231 16.0516 4.37032 16.2795 4.59817C16.5073 4.82603 16.6353 5.13507 16.6353 5.45731Z" fill="white"/>
</svg>
