<svg width="20" height="21" viewBox="0 0 20 21" fill="none" xmlns="http://www.w3.org/2000/svg">
<path d="M20 2.16126V19.2201C20 19.6101 19.8451 19.9842 19.5693 20.26C19.2935 20.5358 18.9194 20.6907 18.5294 20.6907H1.47059C1.08056 20.6907 0.70651 20.5358 0.43073 20.26C0.15494 19.9842 0 19.6101 0 19.2201V2.16126C0 1.77123 0.15494 1.39718 0.43073 1.1214C0.70651 0.845614 1.08056 0.690674 1.47059 0.690674H18.5294C18.9194 0.690674 19.2935 0.845614 19.5693 1.1214C19.8451 1.39718 20 1.77123 20 2.16126ZM5.88235 8.33773H2.94118V17.7495H5.88235V8.33773ZM6.14706 5.10244C6.14861 4.87996 6.10632 4.65936 6.02261 4.45322C5.93891 4.24709 5.81542 4.05946 5.65919 3.90106C5.50297 3.74265 5.31708 3.61656 5.11213 3.53C4.90718 3.44344 4.68718 3.39809 4.46471 3.39655H4.41177C3.95934 3.39655 3.52544 3.57628 3.20552 3.89619C2.88561 4.21611 2.70588 4.65001 2.70588 5.10244C2.70588 5.55486 2.88561 5.98876 3.20552 6.30868C3.52544 6.62859 3.95934 6.80832 4.41177 6.80832C4.63426 6.81379 4.85565 6.77537 5.06328 6.69525C5.27092 6.61514 5.46074 6.49489 5.62189 6.34139C5.78304 6.18789 5.91237 6.00413 6.00248 5.80063C6.09259 5.59713 6.14172 5.37787 6.14706 5.15538V5.10244ZM17.0588 12.0319C17.0588 9.20247 15.2588 8.10244 13.4706 8.10244C12.8851 8.07312 12.3021 8.19782 11.7799 8.46412C11.2576 8.73037 10.8143 9.12897 10.4941 9.62007H10.4118V8.33773H7.64706V17.7495H10.5882V12.7436C10.5457 12.231 10.7072 11.7222 11.0376 11.3279C11.3681 10.9336 11.8407 10.6856 12.3529 10.6378H12.4647C13.4 10.6378 14.0941 11.226 14.0941 12.7083V17.7495H17.0353L17.0588 12.0319Z" fill="white"/>
</svg>
