<svg width="226" height="47" viewBox="0 0 226 47" fill="none" xmlns="http://www.w3.org/2000/svg">
<path d="M214.206 21.8349L204.697 12.3313C204.516 12.1495 204.516 11.8502 204.697 11.6631L212.373 3.98751C215.072 1.29355 219.482 1.29355 222.181 3.98751C225.078 6.88457 225.078 11.6257 222.181 14.5228L214.869 21.8349C214.687 22.0167 214.388 22.0167 214.206 21.8349Z" fill="#1A86C6"/>
<path d="M188.213 0.801772C190.201 0.801772 192.067 1.57147 193.462 2.96655L201.426 10.9362L190.928 21.4287L182.964 13.4591C181.569 12.064 180.799 10.1985 180.799 8.21014C180.799 6.22175 181.569 4.35629 182.964 2.96121C184.359 1.56613 186.224 0.801772 188.213 0.801772ZM188.213 0C186.107 0 183.995 0.801771 182.397 2.39997C179.201 5.59636 179.201 10.8293 182.397 14.031L190.928 22.5619L202.559 10.9308L194.028 2.39997C192.43 0.796426 190.324 0 188.213 0Z" fill="#8FC641"/>
<path d="M217.414 0.801771C219.402 0.801771 221.268 1.57147 222.663 2.96655C224.058 4.36164 224.827 6.22709 224.827 8.21548C224.827 10.2039 224.058 12.0693 222.663 13.4644L214.693 21.4287L204.195 10.9308L212.165 2.96655C213.56 1.57147 215.425 0.801771 217.414 0.801771ZM217.414 0C215.308 0 213.196 0.801771 211.598 2.39462L203.062 10.9308L214.693 22.5618L223.229 14.031C226.431 10.8346 226.431 5.59636 223.229 2.39997C221.626 0.801771 219.52 0 217.414 0ZM205.98 22.2679C206.323 22.2679 206.6 22.5458 206.6 22.8879C206.6 23.23 206.323 23.5079 205.98 23.5079C205.815 23.5079 205.66 23.4438 205.542 23.3262C205.425 23.2086 205.36 23.0536 205.36 22.8879C205.36 22.5458 205.638 22.2679 205.98 22.2679ZM205.986 21.4661C205.2 21.4661 204.564 22.1022 204.564 22.8879C204.564 23.6736 205.2 24.3097 205.986 24.3097C206.772 24.3097 207.408 23.6736 207.408 22.8879C207.408 22.1022 206.772 21.4661 205.986 21.4661Z" fill="#1A86C6"/>
<path d="M199.791 22.2091C200.133 22.2091 200.411 22.487 200.411 22.8291C200.411 23.1712 200.133 23.4492 199.791 23.4492C199.625 23.4492 199.47 23.385 199.352 23.2674C199.235 23.1498 199.171 22.9948 199.171 22.8291C199.171 22.6634 199.235 22.5084 199.352 22.3908C199.47 22.2732 199.625 22.2091 199.791 22.2091ZM199.791 21.4073C199.005 21.4073 198.369 22.0434 198.369 22.8291C198.369 23.6149 199.005 24.2509 199.791 24.2509C200.576 24.2509 201.212 23.6149 201.212 22.8291C201.218 22.0434 200.576 21.4073 199.791 21.4073ZM205.911 29.4304C206.076 29.4304 206.231 29.4945 206.349 29.6121C206.467 29.7297 206.531 29.8847 206.531 30.0504C206.531 30.2161 206.467 30.3711 206.349 30.4887C206.231 30.6063 206.076 30.6705 205.911 30.6705C205.745 30.6705 205.59 30.6063 205.472 30.4887C205.355 30.3711 205.291 30.2161 205.291 30.0504C205.291 29.8847 205.355 29.7297 205.472 29.6121C205.59 29.4999 205.745 29.4304 205.911 29.4304ZM205.911 28.6286C205.125 28.6286 204.489 29.2647 204.489 30.0504C204.489 30.8362 205.125 31.4722 205.911 31.4722C206.696 31.4722 207.333 30.8362 207.333 30.0504C207.338 29.27 206.696 28.6286 205.911 28.6286ZM199.721 29.3716C199.887 29.3716 200.042 29.4357 200.159 29.5533C200.277 29.6709 200.341 29.8259 200.341 29.9916C200.341 30.1573 200.277 30.3123 200.159 30.4299C200.042 30.5475 199.887 30.6117 199.721 30.6117C199.379 30.6117 199.101 30.3337 199.101 29.9916C199.101 29.6495 199.379 29.3716 199.721 29.3716ZM199.721 28.5698C198.935 28.5698 198.299 29.2059 198.299 29.9916C198.299 30.7774 198.935 31.4134 199.721 31.4134C200.507 31.4134 201.143 30.7774 201.143 29.9916C201.143 29.2059 200.507 28.5698 199.721 28.5698ZM208.733 26.2821C208.899 26.2821 209.054 26.3462 209.171 26.4638C209.289 26.5814 209.353 26.7364 209.353 26.9021C209.353 27.0678 209.289 27.2228 209.171 27.3404C209.054 27.458 208.899 27.5222 208.733 27.5222C208.567 27.5222 208.412 27.458 208.295 27.3404C208.177 27.2228 208.113 27.0678 208.113 26.9021C208.113 26.7364 208.177 26.5814 208.295 26.4638C208.412 26.3462 208.567 26.2821 208.733 26.2821ZM208.733 25.4803C207.947 25.4803 207.311 26.1164 207.311 26.9021C207.311 27.6879 207.947 28.3239 208.733 28.3239C209.519 28.3239 210.155 27.6879 210.155 26.9021C210.16 26.1164 209.519 25.4803 208.733 25.4803ZM196.696 26.0202C197.038 26.0202 197.316 26.2981 197.316 26.6402C197.316 26.9823 197.038 27.2602 196.696 27.2602C196.354 27.2602 196.076 26.9823 196.076 26.6402C196.076 26.4745 196.14 26.3195 196.257 26.2019C196.375 26.0897 196.53 26.0202 196.696 26.0202ZM196.696 25.2184C195.91 25.2184 195.274 25.8545 195.274 26.6402C195.274 27.4259 195.91 28.062 196.696 28.062C197.481 28.062 198.118 27.4259 198.118 26.6402C198.118 25.8598 197.481 25.2184 196.696 25.2184ZM202.752 25.8064C203.094 25.8064 203.372 26.0843 203.372 26.4264C203.372 26.7685 203.094 27.0464 202.752 27.0464C202.41 27.0464 202.132 26.7685 202.132 26.4264C202.132 26.2607 202.196 26.1057 202.313 25.9881C202.431 25.8705 202.586 25.8064 202.752 25.8064ZM202.752 25.0046C201.966 25.0046 201.33 25.6407 201.33 26.4264C201.33 27.2121 201.966 27.8482 202.752 27.8482C203.538 27.8482 204.174 27.2121 204.174 26.4264C204.174 25.6407 203.538 25.0046 202.752 25.0046ZM202.821 18.7454C203.163 18.7454 203.441 19.0234 203.441 19.3655C203.441 19.7076 203.163 19.9855 202.821 19.9855C202.656 19.9855 202.501 19.9214 202.383 19.8038C202.265 19.6862 202.201 19.5312 202.201 19.3655C202.201 19.1998 202.265 19.0448 202.383 18.9272C202.501 18.8096 202.656 18.7454 202.821 18.7454ZM202.821 17.9437C202.036 17.9437 201.399 18.5797 201.399 19.3655C201.399 20.1512 202.036 20.7873 202.821 20.7873C203.607 20.7873 204.243 20.1512 204.243 19.3655C204.248 18.5797 203.607 17.9437 202.821 17.9437ZM202.682 32.9582C203.024 32.9582 203.302 33.2361 203.302 33.5782C203.302 33.7439 203.238 33.8989 203.121 34.0165C203.003 34.1341 202.848 34.1982 202.682 34.1982C202.34 34.1982 202.062 33.9203 202.062 33.5782C202.062 33.4125 202.126 33.2575 202.244 33.1399C202.362 33.0223 202.517 32.9582 202.682 32.9582ZM202.682 32.1564C201.897 32.1564 201.26 32.7925 201.26 33.5782C201.26 34.3639 201.897 35 202.682 35C203.468 35 204.104 34.3639 204.104 33.5782C204.104 32.7925 203.468 32.1564 202.682 32.1564Z" fill="#8FC641"/>
<path d="M16.29 20.21C16.29 21.95 15.69 23.4 14.49 24.56C13.31 25.7 11.5 26.27 9.06 26.27H5.04V35H2.31V14.09H9.06C11.42 14.09 13.21 14.66 14.43 15.8C15.67 16.94 16.29 18.41 16.29 20.21ZM9.06 24.02C10.58 24.02 11.7 23.69 12.42 23.03C13.14 22.37 13.5 21.43 13.5 20.21C13.5 17.63 12.02 16.34 9.06 16.34H5.04V24.02H9.06ZM27.843 18.26C29.083 18.26 30.203 18.53 31.203 19.07C32.203 19.59 32.983 20.38 33.543 21.44C34.123 22.5 34.413 23.79 34.413 25.31V35H31.713V25.7C31.713 24.06 31.303 22.81 30.483 21.95C29.663 21.07 28.543 20.63 27.123 20.63C25.683 20.63 24.533 21.08 23.673 21.98C22.833 22.88 22.413 24.19 22.413 25.91V35H19.683V12.8H22.413V20.9C22.953 20.06 23.693 19.41 24.633 18.95C25.593 18.49 26.663 18.26 27.843 18.26ZM37.8525 26.72C37.8525 25.04 38.1925 23.57 38.8725 22.31C39.5525 21.03 40.4825 20.04 41.6625 19.34C42.8625 18.64 44.1925 18.29 45.6525 18.29C47.0925 18.29 48.3425 18.6 49.4025 19.22C50.4625 19.84 51.2525 20.62 51.7725 21.56V18.56H54.5325V35H51.7725V31.94C51.2325 32.9 50.4225 33.7 49.3425 34.34C48.2825 34.96 47.0425 35.27 45.6225 35.27C44.1625 35.27 42.8425 34.91 41.6625 34.19C40.4825 33.47 39.5525 32.46 38.8725 31.16C38.1925 29.86 37.8525 28.38 37.8525 26.72ZM51.7725 26.75C51.7725 25.51 51.5225 24.43 51.0225 23.51C50.5225 22.59 49.8425 21.89 48.9825 21.41C48.1425 20.91 47.2125 20.66 46.1925 20.66C45.1725 20.66 44.2425 20.9 43.4025 21.38C42.5625 21.86 41.8925 22.56 41.3925 23.48C40.8925 24.4 40.6425 25.48 40.6425 26.72C40.6425 27.98 40.8925 29.08 41.3925 30.02C41.8925 30.94 42.5625 31.65 43.4025 32.15C44.2425 32.63 45.1725 32.87 46.1925 32.87C47.2125 32.87 48.1425 32.63 48.9825 32.15C49.8425 31.65 50.5225 30.94 51.0225 30.02C51.5225 29.08 51.7725 27.99 51.7725 26.75ZM61.8759 21.23C62.3559 20.29 63.0359 19.56 63.9159 19.04C64.8159 18.52 65.9059 18.26 67.1859 18.26V21.08H66.4659C63.4059 21.08 61.8759 22.74 61.8759 26.06V35H59.1459V18.56H61.8759V21.23ZM90.1073 18.26C91.3873 18.26 92.5273 18.53 93.5273 19.07C94.5273 19.59 95.3173 20.38 95.8973 21.44C96.4773 22.5 96.7673 23.79 96.7673 25.31V35H94.0673V25.7C94.0673 24.06 93.6573 22.81 92.8373 21.95C92.0373 21.07 90.9473 20.63 89.5673 20.63C88.1473 20.63 87.0173 21.09 86.1773 22.01C85.3373 22.91 84.9173 24.22 84.9173 25.94V35H82.2173V25.7C82.2173 24.06 81.8073 22.81 80.9873 21.95C80.1873 21.07 79.0973 20.63 77.7173 20.63C76.2973 20.63 75.1673 21.09 74.3273 22.01C73.4873 22.91 73.0673 24.22 73.0673 25.94V35H70.3373V18.56H73.0673V20.93C73.6073 20.07 74.3273 19.41 75.2273 18.95C76.1473 18.49 77.1573 18.26 78.2573 18.26C79.6373 18.26 80.8573 18.57 81.9173 19.19C82.9773 19.81 83.7673 20.72 84.2873 21.92C84.7473 20.76 85.5073 19.86 86.5673 19.22C87.6273 18.58 88.8073 18.26 90.1073 18.26ZM100.226 26.72C100.226 25.04 100.566 23.57 101.246 22.31C101.926 21.03 102.856 20.04 104.036 19.34C105.236 18.64 106.566 18.29 108.026 18.29C109.466 18.29 110.716 18.6 111.776 19.22C112.836 19.84 113.626 20.62 114.146 21.56V18.56H116.906V35H114.146V31.94C113.606 32.9 112.796 33.7 111.716 34.34C110.656 34.96 109.416 35.27 107.996 35.27C106.536 35.27 105.216 34.91 104.036 34.19C102.856 33.47 101.926 32.46 101.246 31.16C100.566 29.86 100.226 28.38 100.226 26.72ZM114.146 26.75C114.146 25.51 113.896 24.43 113.396 23.51C112.896 22.59 112.216 21.89 111.356 21.41C110.516 20.91 109.586 20.66 108.566 20.66C107.546 20.66 106.616 20.9 105.776 21.38C104.936 21.86 104.266 22.56 103.766 23.48C103.266 24.4 103.016 25.48 103.016 26.72C103.016 27.98 103.266 29.08 103.766 30.02C104.266 30.94 104.936 31.65 105.776 32.15C106.616 32.63 107.546 32.87 108.566 32.87C109.586 32.87 110.516 32.63 111.356 32.15C112.216 31.65 112.896 30.94 113.396 30.02C113.896 29.08 114.146 27.99 114.146 26.75Z" fill="#8FC641"/>
<path d="M128.689 35.21C127.149 35.21 125.769 34.96 124.549 34.46C123.329 33.96 122.349 33.22 121.609 32.24C120.889 31.26 120.509 30.08 120.469 28.7H125.929C126.009 29.48 126.279 30.08 126.739 30.5C127.199 30.9 127.799 31.1 128.539 31.1C129.299 31.1 129.899 30.93 130.339 30.59C130.779 30.23 130.999 29.74 130.999 29.12C130.999 28.6 130.819 28.17 130.459 27.83C130.119 27.49 129.689 27.21 129.169 26.99C128.669 26.77 127.949 26.52 127.009 26.24C125.649 25.82 124.539 25.4 123.679 24.98C122.819 24.56 122.079 23.94 121.459 23.12C120.839 22.3 120.529 21.23 120.529 19.91C120.529 17.95 121.239 16.42 122.659 15.32C124.079 14.2 125.929 13.64 128.209 13.64C130.529 13.64 132.399 14.2 133.819 15.32C135.239 16.42 135.999 17.96 136.099 19.94H130.549C130.509 19.26 130.259 18.73 129.799 18.35C129.339 17.95 128.749 17.75 128.029 17.75C127.409 17.75 126.909 17.92 126.529 18.26C126.149 18.58 125.959 19.05 125.959 19.67C125.959 20.35 126.279 20.88 126.919 21.26C127.559 21.64 128.559 22.05 129.919 22.49C131.279 22.95 132.379 23.39 133.219 23.81C134.079 24.23 134.819 24.84 135.439 25.64C136.059 26.44 136.369 27.47 136.369 28.73C136.369 29.93 136.059 31.02 135.439 32C134.839 32.98 133.959 33.76 132.799 34.34C131.639 34.92 130.269 35.21 128.689 35.21ZM155.306 26.36C155.306 26.84 155.276 27.34 155.216 27.86H143.606C143.686 28.9 144.016 29.7 144.596 30.26C145.196 30.8 145.926 31.07 146.786 31.07C148.066 31.07 148.956 30.53 149.456 29.45H154.916C154.636 30.55 154.126 31.54 153.386 32.42C152.666 33.3 151.756 33.99 150.656 34.49C149.556 34.99 148.326 35.24 146.966 35.24C145.326 35.24 143.866 34.89 142.586 34.19C141.306 33.49 140.306 32.49 139.586 31.19C138.866 29.89 138.506 28.37 138.506 26.63C138.506 24.89 138.856 23.37 139.556 22.07C140.276 20.77 141.276 19.77 142.556 19.07C143.836 18.37 145.306 18.02 146.966 18.02C148.586 18.02 150.026 18.36 151.286 19.04C152.546 19.72 153.526 20.69 154.226 21.95C154.946 23.21 155.306 24.68 155.306 26.36ZM150.056 25.01C150.056 24.13 149.756 23.43 149.156 22.91C148.556 22.39 147.806 22.13 146.906 22.13C146.046 22.13 145.316 22.38 144.716 22.88C144.136 23.38 143.776 24.09 143.636 25.01H150.056ZM156.992 26.6C156.992 24.88 157.312 23.37 157.952 22.07C158.612 20.77 159.502 19.77 160.622 19.07C161.742 18.37 162.992 18.02 164.372 18.02C165.552 18.02 166.582 18.26 167.462 18.74C168.362 19.22 169.052 19.85 169.532 20.63V18.26H174.662V35H169.532V32.63C169.032 33.41 168.332 34.04 167.432 34.52C166.552 35 165.522 35.24 164.342 35.24C162.982 35.24 161.742 34.89 160.622 34.19C159.502 33.47 158.612 32.46 157.952 31.16C157.312 29.84 156.992 28.32 156.992 26.6ZM169.532 26.63C169.532 25.35 169.172 24.34 168.452 23.6C167.752 22.86 166.892 22.49 165.872 22.49C164.852 22.49 163.982 22.86 163.262 23.6C162.562 24.32 162.212 25.32 162.212 26.6C162.212 27.88 162.562 28.9 163.262 29.66C163.982 30.4 164.852 30.77 165.872 30.77C166.892 30.77 167.752 30.4 168.452 29.66C169.172 28.92 169.532 27.91 169.532 26.63Z" fill="#1A86C6"/>
</svg>
