<svg width="146" height="112" viewBox="0 0 146 112" fill="none" xmlns="http://www.w3.org/2000/svg">
<path d="M109.265 69.747L78.8905 39.3895C78.3099 38.809 78.3099 37.8529 78.8905 37.2553L103.409 12.7371C112.031 4.13189 126.117 4.13189 134.739 12.7371C143.993 21.9912 143.993 37.1358 134.739 46.3898L111.382 69.747C110.802 70.3275 109.845 70.3275 109.265 69.747Z" fill="#1A86C6"/>
<path d="M26.2346 2.56109C32.5861 2.56109 38.5449 5.01973 43.0012 9.47603L68.4413 34.9332L34.9081 68.4493L9.46798 42.9921C5.01168 38.5358 2.55304 32.577 2.55304 26.2255C2.55304 19.874 5.01168 13.9152 9.46798 9.45895C13.9243 5.00266 19.8831 2.56109 26.2346 2.56109ZM26.2346 0C19.5074 0 12.7632 2.56109 7.65814 7.66619C-2.55206 17.8764 -2.55206 34.5918 7.65814 44.819L34.9081 72.069L72.061 34.9162L44.811 7.66619C39.7059 2.54401 32.9788 0 26.2346 0Z" fill="#8FC641"/>
<path d="M119.509 2.56109C125.861 2.56109 131.82 5.01973 136.276 9.47603C140.732 13.9323 143.191 19.8911 143.191 26.2426C143.191 32.5941 140.732 38.5529 136.276 43.0092L110.819 68.4493L77.2854 34.9162L102.743 9.47603C107.199 5.01973 113.158 2.56109 119.509 2.56109ZM119.509 0C112.782 0 106.038 2.56109 100.933 7.64911L73.6658 34.9162L110.819 72.069L138.086 44.819C148.313 34.6088 148.313 17.8764 138.086 7.66619C132.963 2.56109 126.236 0 119.509 0ZM82.9881 71.13C84.0809 71.13 84.9687 72.0178 84.9687 73.1105C84.9687 74.2033 84.0809 75.0911 82.9881 75.0911C82.4588 75.0911 81.9637 74.8862 81.5881 74.5106C81.2124 74.135 81.0076 73.6398 81.0076 73.1105C81.0076 72.0178 81.8954 71.13 82.9881 71.13ZM83.0052 68.5689C80.4953 68.5689 78.4635 70.6007 78.4635 73.1105C78.4635 75.6204 80.4953 77.6522 83.0052 77.6522C85.5151 77.6522 87.5469 75.6204 87.5469 73.1105C87.5469 70.6007 85.5151 68.5689 83.0052 68.5689Z" fill="#1A86C6"/>
<path d="M63.2168 70.9421C64.3095 70.9421 65.1973 71.83 65.1973 72.9227C65.1973 74.0154 64.3095 74.9033 63.2168 74.9033C62.6875 74.9033 62.1923 74.6984 61.8167 74.3228C61.4411 73.9471 61.2362 73.452 61.2362 72.9227C61.2362 72.3934 61.4411 71.8983 61.8167 71.5226C62.1923 71.147 62.6875 70.9421 63.2168 70.9421ZM63.2168 68.381C60.7069 68.381 58.6751 70.4128 58.6751 72.9227C58.6751 75.4326 60.7069 77.4644 63.2168 77.4644C65.7266 77.4644 67.7584 75.4326 67.7584 72.9227C67.7755 70.4128 65.7266 68.381 63.2168 68.381ZM82.7664 94.009C83.2957 94.009 83.7908 94.2139 84.1665 94.5895C84.5421 94.9651 84.747 95.4603 84.747 95.9896C84.747 96.5189 84.5421 97.014 84.1665 97.3896C83.7908 97.7653 83.2957 97.9701 82.7664 97.9701C82.2371 97.9701 81.742 97.7653 81.3663 97.3896C80.9907 97.014 80.7858 96.5189 80.7858 95.9896C80.7858 95.4603 80.9907 94.9651 81.3663 94.5895C81.742 94.231 82.2371 94.009 82.7664 94.009ZM82.7664 91.4479C80.2565 91.4479 78.2247 93.4797 78.2247 95.9896C78.2247 98.4994 80.2565 100.531 82.7664 100.531C85.2763 100.531 87.3081 98.4994 87.3081 95.9896C87.3251 93.4968 85.2763 91.4479 82.7664 91.4479ZM62.9948 93.8212C63.5241 93.8212 64.0192 94.0261 64.3949 94.4017C64.7705 94.7773 64.9754 95.2725 64.9754 95.8018C64.9754 96.3311 64.7705 96.8262 64.3949 97.2018C64.0192 97.5774 63.5241 97.7823 62.9948 97.7823C61.9021 97.7823 61.0142 96.8945 61.0142 95.8018C61.0142 94.709 61.9021 93.8212 62.9948 93.8212ZM62.9948 91.2601C60.4849 91.2601 58.4531 93.2919 58.4531 95.8018C58.4531 98.3116 60.4849 100.343 62.9948 100.343C65.5047 100.343 67.5365 98.3116 67.5365 95.8018C67.5365 93.2919 65.5047 91.2601 62.9948 91.2601ZM91.7814 83.9525C92.3107 83.9525 92.8059 84.1573 93.1815 84.533C93.5571 84.9086 93.762 85.4037 93.762 85.933C93.762 86.4623 93.5571 86.9575 93.1815 87.3331C92.8059 87.7087 92.3107 87.9136 91.7814 87.9136C91.2521 87.9136 90.757 87.7087 90.3814 87.3331C90.0058 86.9575 89.8009 86.4623 89.8009 85.933C89.8009 85.4037 90.0058 84.9086 90.3814 84.533C90.757 84.1573 91.2521 83.9525 91.7814 83.9525ZM91.7814 81.3914C89.2716 81.3914 87.2398 83.4232 87.2398 85.933C87.2398 88.4429 89.2716 90.4747 91.7814 90.4747C94.2913 90.4747 96.3231 88.4429 96.3231 85.933C96.3402 83.4232 94.2913 81.3914 91.7814 81.3914ZM53.331 83.1158C54.4237 83.1158 55.3115 84.0037 55.3115 85.0964C55.3115 86.1891 54.4237 87.077 53.331 87.077C52.2382 87.077 51.3504 86.1891 51.3504 85.0964C51.3504 84.5671 51.5553 84.072 51.9309 83.6963C52.3065 83.3378 52.8017 83.1158 53.331 83.1158ZM53.331 80.5547C50.8211 80.5547 48.7893 82.5865 48.7893 85.0964C48.7893 87.6063 50.8211 89.6381 53.331 89.6381C55.8408 89.6381 57.8726 87.6063 57.8726 85.0964C57.8726 82.6036 55.8408 80.5547 53.331 80.5547ZM72.6757 82.4329C73.7685 82.4329 74.6563 83.3207 74.6563 84.4135C74.6563 85.5062 73.7685 86.394 72.6757 86.394C71.583 86.394 70.6951 85.5062 70.6951 84.4135C70.6951 83.8842 70.9 83.389 71.2757 83.0134C71.6513 82.6378 72.1464 82.4329 72.6757 82.4329ZM72.6757 79.8718C70.1659 79.8718 68.1341 81.9036 68.1341 84.4135C68.1341 86.9233 70.1659 88.9551 72.6757 88.9551C75.1856 88.9551 77.2174 86.9233 77.2174 84.4135C77.2174 81.9036 75.1856 79.8718 72.6757 79.8718ZM72.8977 59.8782C73.9904 59.8782 74.8783 60.7661 74.8783 61.8588C74.8783 62.9515 73.9904 63.8394 72.8977 63.8394C72.3684 63.8394 71.8732 63.6345 71.4976 63.2589C71.122 62.8832 70.9171 62.3881 70.9171 61.8588C70.9171 61.3295 71.122 60.8344 71.4976 60.4587C71.8732 60.0831 72.3684 59.8782 72.8977 59.8782ZM72.8977 57.3171C70.3878 57.3171 68.356 59.3489 68.356 61.8588C68.356 64.3687 70.3878 66.4005 72.8977 66.4005C75.4075 66.4005 77.4393 64.3687 77.4393 61.8588C77.4564 59.3489 75.4075 57.3171 72.8977 57.3171ZM72.4538 105.278C73.5465 105.278 74.4343 106.166 74.4343 107.258C74.4343 107.788 74.2294 108.283 73.8538 108.658C73.4782 109.034 72.9831 109.239 72.4538 109.239C71.361 109.239 70.4732 108.351 70.4732 107.258C70.4732 106.729 70.6781 106.234 71.0537 105.858C71.4293 105.483 71.9245 105.278 72.4538 105.278ZM72.4538 102.717C69.9439 102.717 67.9121 104.748 67.9121 107.258C67.9121 109.768 69.9439 111.8 72.4538 111.8C74.9636 111.8 76.9954 109.768 76.9954 107.258C76.9954 104.748 74.9636 102.717 72.4538 102.717Z" fill="#8FC641"/>
</svg>
