<svg width="717" height="150" viewBox="0 0 717 150" fill="none" xmlns="http://www.w3.org/2000/svg">
<path d="M680.265 69.747L649.891 39.3895C649.31 38.809 649.31 37.8529 649.891 37.2553L674.409 12.7371C683.031 4.1319 697.117 4.1319 705.74 12.7371C714.994 21.9912 714.994 37.1358 705.74 46.3898L682.382 69.747C681.802 70.3275 680.846 70.3275 680.265 69.747Z" fill="#1A86C6"/>
<path d="M597.235 2.56109C603.586 2.56109 609.545 5.01973 614.001 9.47603L639.441 34.9332L605.908 68.4493L580.468 42.9921C576.012 38.5358 573.553 32.577 573.553 26.2255C573.553 19.874 576.012 13.9152 580.468 9.45895C584.924 5.00266 590.883 2.56109 597.235 2.56109ZM597.235 0C590.508 0 583.763 2.56109 578.658 7.66619C568.448 17.8764 568.448 34.5918 578.658 44.819L605.908 72.069L643.061 34.9162L615.811 7.66619C610.706 2.54401 603.979 0 597.235 0Z" fill="#8FC641"/>
<path d="M690.509 2.56109C696.861 2.56109 702.82 5.01973 707.276 9.47603C711.732 13.9323 714.191 19.8911 714.191 26.2426C714.191 32.5941 711.732 38.5529 707.276 43.0092L681.819 68.4493L648.286 34.9162L673.743 9.47603C678.199 5.01973 684.158 2.56109 690.509 2.56109ZM690.509 0C683.782 0 677.038 2.56109 671.933 7.64911L644.666 34.9162L681.819 72.069L709.086 44.819C719.313 34.6088 719.313 17.8764 709.086 7.66619C703.964 2.56109 697.237 0 690.509 0ZM653.988 71.13C655.081 71.13 655.969 72.0178 655.969 73.1105C655.969 74.2033 655.081 75.0911 653.988 75.0911C653.459 75.0911 652.964 74.8862 652.588 74.5106C652.213 74.135 652.008 73.6398 652.008 73.1105C652.008 72.0178 652.896 71.13 653.988 71.13ZM654.005 68.5689C651.496 68.5689 649.464 70.6007 649.464 73.1105C649.464 75.6204 651.496 77.6522 654.005 77.6522C656.515 77.6522 658.547 75.6204 658.547 73.1105C658.547 70.6007 656.515 68.5689 654.005 68.5689Z" fill="#1A86C6"/>
<path d="M634.217 70.9421C635.309 70.9421 636.197 71.83 636.197 72.9227C636.197 74.0154 635.309 74.9033 634.217 74.9033C633.687 74.9033 633.192 74.6984 632.817 74.3228C632.441 73.9471 632.236 73.452 632.236 72.9227C632.236 72.3934 632.441 71.8983 632.817 71.5226C633.192 71.147 633.687 70.9421 634.217 70.9421ZM634.217 68.381C631.707 68.381 629.675 70.4128 629.675 72.9227C629.675 75.4326 631.707 77.4644 634.217 77.4644C636.727 77.4644 638.758 75.4326 638.758 72.9227C638.776 70.4128 636.727 68.381 634.217 68.381ZM653.766 94.009C654.296 94.009 654.791 94.2139 655.166 94.5895C655.542 94.9651 655.747 95.4603 655.747 95.9896C655.747 96.5189 655.542 97.014 655.166 97.3896C654.791 97.7653 654.296 97.9701 653.766 97.9701C653.237 97.9701 652.742 97.7653 652.366 97.3896C651.991 97.014 651.786 96.5189 651.786 95.9896C651.786 95.4603 651.991 94.9651 652.366 94.5895C652.742 94.231 653.237 94.009 653.766 94.009ZM653.766 91.4479C651.257 91.4479 649.225 93.4797 649.225 95.9896C649.225 98.4994 651.257 100.531 653.766 100.531C656.276 100.531 658.308 98.4994 658.308 95.9896C658.325 93.4968 656.276 91.4479 653.766 91.4479ZM633.995 93.8212C634.524 93.8212 635.019 94.0261 635.395 94.4017C635.77 94.7773 635.975 95.2725 635.975 95.8018C635.975 96.331 635.77 96.8262 635.395 97.2018C635.019 97.5774 634.524 97.7823 633.995 97.7823C632.902 97.7823 632.014 96.8945 632.014 95.8018C632.014 94.709 632.902 93.8212 633.995 93.8212ZM633.995 91.2601C631.485 91.2601 629.453 93.2919 629.453 95.8018C629.453 98.3116 631.485 100.343 633.995 100.343C636.505 100.343 638.536 98.3116 638.536 95.8018C638.536 93.2919 636.505 91.2601 633.995 91.2601ZM662.781 83.9525C663.311 83.9525 663.806 84.1573 664.181 84.533C664.557 84.9086 664.762 85.4037 664.762 85.933C664.762 86.4623 664.557 86.9575 664.181 87.3331C663.806 87.7087 663.311 87.9136 662.781 87.9136C662.252 87.9136 661.757 87.7087 661.381 87.3331C661.006 86.9575 660.801 86.4623 660.801 85.933C660.801 85.4037 661.006 84.9086 661.381 84.533C661.757 84.1573 662.252 83.9525 662.781 83.9525ZM662.781 81.3914C660.272 81.3914 658.24 83.4232 658.24 85.933C658.24 88.4429 660.272 90.4747 662.781 90.4747C665.291 90.4747 667.323 88.4429 667.323 85.933C667.34 83.4232 665.291 81.3914 662.781 81.3914ZM624.331 83.1158C625.424 83.1158 626.312 84.0037 626.312 85.0964C626.312 86.1891 625.424 87.077 624.331 87.077C623.238 87.077 622.35 86.1891 622.35 85.0964C622.35 84.5671 622.555 84.072 622.931 83.6963C623.307 83.3378 623.802 83.1158 624.331 83.1158ZM624.331 80.5547C621.821 80.5547 619.789 82.5865 619.789 85.0964C619.789 87.6063 621.821 89.6381 624.331 89.6381C626.841 89.6381 628.873 87.6063 628.873 85.0964C628.873 82.6036 626.841 80.5547 624.331 80.5547ZM643.676 82.4329C644.768 82.4329 645.656 83.3207 645.656 84.4135C645.656 85.5062 644.768 86.394 643.676 86.394C642.583 86.394 641.695 85.5062 641.695 84.4135C641.695 83.8842 641.9 83.389 642.276 83.0134C642.651 82.6378 643.146 82.4329 643.676 82.4329ZM643.676 79.8718C641.166 79.8718 639.134 81.9036 639.134 84.4135C639.134 86.9233 641.166 88.9551 643.676 88.9551C646.186 88.9551 648.217 86.9233 648.217 84.4135C648.217 81.9036 646.186 79.8718 643.676 79.8718ZM643.898 59.8782C644.99 59.8782 645.878 60.7661 645.878 61.8588C645.878 62.9515 644.99 63.8394 643.898 63.8394C643.368 63.8394 642.873 63.6345 642.498 63.2589C642.122 62.8832 641.917 62.3881 641.917 61.8588C641.917 61.3295 642.122 60.8344 642.498 60.4587C642.873 60.0831 643.368 59.8782 643.898 59.8782ZM643.898 57.3171C641.388 57.3171 639.356 59.3489 639.356 61.8588C639.356 64.3687 641.388 66.4005 643.898 66.4005C646.408 66.4005 648.439 64.3687 648.439 61.8588C648.456 59.3489 646.408 57.3171 643.898 57.3171ZM643.454 105.278C644.546 105.278 645.434 106.166 645.434 107.258C645.434 107.788 645.229 108.283 644.854 108.658C644.478 109.034 643.983 109.239 643.454 109.239C642.361 109.239 641.473 108.351 641.473 107.258C641.473 106.729 641.678 106.234 642.054 105.858C642.429 105.483 642.924 105.278 643.454 105.278ZM643.454 102.717C640.944 102.717 638.912 104.748 638.912 107.258C638.912 109.768 640.944 111.8 643.454 111.8C645.964 111.8 647.995 109.768 647.995 107.258C647.995 104.748 645.964 102.717 643.454 102.717Z" fill="#8FC641"/>
<path d="M52.1281 64.672C52.1281 70.24 50.2081 74.88 46.3681 78.592C42.5921 82.24 36.8001 84.064 28.9921 84.064H16.1281V112H7.39209V45.088H28.9921C36.5441 45.088 42.2721 46.912 46.1761 50.56C50.1441 54.208 52.1281 58.912 52.1281 64.672ZM28.9921 76.864C33.8561 76.864 37.4401 75.808 39.7441 73.696C42.0481 71.584 43.2001 68.576 43.2001 64.672C43.2001 56.416 38.4641 52.288 28.9921 52.288H16.1281V76.864H28.9921ZM89.0979 58.432C93.0659 58.432 96.6499 59.296 99.8499 61.024C103.05 62.688 105.546 65.216 107.338 68.608C109.194 72 110.122 76.128 110.122 80.992V112H101.482V82.24C101.482 76.992 100.17 72.992 97.5459 70.24C94.9219 67.424 91.3379 66.016 86.7939 66.016C82.1859 66.016 78.5059 67.456 75.7539 70.336C73.0659 73.216 71.7219 77.408 71.7219 82.912V112H62.9859V40.96H71.7219V66.88C73.4499 64.192 75.8179 62.112 78.8259 60.64C81.8979 59.168 85.3219 58.432 89.0979 58.432ZM121.128 85.504C121.128 80.128 122.216 75.424 124.392 71.392C126.568 67.296 129.544 64.128 133.32 61.888C137.16 59.648 141.416 58.528 146.088 58.528C150.696 58.528 154.696 59.52 158.088 61.504C161.48 63.488 164.008 65.984 165.672 68.992V59.392H174.504V112H165.672V102.208C163.944 105.28 161.352 107.84 157.896 109.888C154.504 111.872 150.536 112.864 145.992 112.864C141.32 112.864 137.096 111.712 133.32 109.408C129.544 107.104 126.568 103.872 124.392 99.712C122.216 95.552 121.128 90.816 121.128 85.504ZM165.672 85.6C165.672 81.632 164.872 78.176 163.272 75.232C161.672 72.288 159.496 70.048 156.744 68.512C154.056 66.912 151.08 66.112 147.816 66.112C144.552 66.112 141.576 66.88 138.888 68.416C136.2 69.952 134.056 72.192 132.456 75.136C130.856 78.08 130.056 81.536 130.056 85.504C130.056 89.536 130.856 93.056 132.456 96.064C134.056 99.008 136.2 101.28 138.888 102.88C141.576 104.416 144.552 105.184 147.816 105.184C151.08 105.184 154.056 104.416 156.744 102.88C159.496 101.28 161.672 99.008 163.272 96.064C164.872 93.056 165.672 89.568 165.672 85.6ZM198.003 67.936C199.539 64.928 201.715 62.592 204.531 60.928C207.411 59.264 210.899 58.432 214.995 58.432V67.456H212.691C202.899 67.456 198.003 72.768 198.003 83.392V112H189.267V59.392H198.003V67.936ZM288.344 58.432C292.44 58.432 296.088 59.296 299.288 61.024C302.488 62.688 305.016 65.216 306.872 68.608C308.728 72 309.656 76.128 309.656 80.992V112H301.016V82.24C301.016 76.992 299.704 72.992 297.08 70.24C294.52 67.424 291.032 66.016 286.616 66.016C282.072 66.016 278.456 67.488 275.768 70.432C273.08 73.312 271.736 77.504 271.736 83.008V112H263.096V82.24C263.096 76.992 261.784 72.992 259.16 70.24C256.6 67.424 253.112 66.016 248.696 66.016C244.152 66.016 240.536 67.488 237.848 70.432C235.16 73.312 233.816 77.504 233.816 83.008V112H225.08V59.392H233.816V66.976C235.544 64.224 237.848 62.112 240.728 60.64C243.672 59.168 246.904 58.432 250.424 58.432C254.84 58.432 258.744 59.424 262.136 61.408C265.528 63.392 268.056 66.304 269.72 70.144C271.192 66.432 273.624 63.552 277.016 61.504C280.408 59.456 284.184 58.432 288.344 58.432ZM320.722 85.504C320.722 80.128 321.81 75.424 323.986 71.392C326.162 67.296 329.138 64.128 332.914 61.888C336.754 59.648 341.01 58.528 345.682 58.528C350.29 58.528 354.29 59.52 357.682 61.504C361.074 63.488 363.602 65.984 365.266 68.992V59.392H374.098V112H365.266V102.208C363.538 105.28 360.946 107.84 357.49 109.888C354.098 111.872 350.13 112.864 345.586 112.864C340.914 112.864 336.69 111.712 332.914 109.408C329.138 107.104 326.162 103.872 323.986 99.712C321.81 95.552 320.722 90.816 320.722 85.504ZM365.266 85.6C365.266 81.632 364.466 78.176 362.866 75.232C361.266 72.288 359.09 70.048 356.338 68.512C353.65 66.912 350.674 66.112 347.41 66.112C344.146 66.112 341.17 66.88 338.482 68.416C335.794 69.952 333.65 72.192 332.05 75.136C330.45 78.08 329.65 81.536 329.65 85.504C329.65 89.536 330.45 93.056 332.05 96.064C333.65 99.008 335.794 101.28 338.482 102.88C341.17 104.416 344.146 105.184 347.41 105.184C350.674 105.184 353.65 104.416 356.338 102.88C359.09 101.28 361.266 99.008 362.866 96.064C364.466 93.056 365.266 89.568 365.266 85.6Z" fill="#8FC641"/>
<path d="M411.805 112.672C406.877 112.672 402.461 111.872 398.557 110.272C394.653 108.672 391.517 106.304 389.149 103.168C386.845 100.032 385.629 96.2559 385.501 91.8399H402.973C403.229 94.3359 404.093 96.2559 405.565 97.5999C407.037 98.8799 408.957 99.5199 411.325 99.5199C413.757 99.5199 415.677 98.976 417.085 97.888C418.493 96.736 419.197 95.1679 419.197 93.1839C419.197 91.5199 418.621 90.144 417.469 89.056C416.381 87.9679 415.005 87.0719 413.341 86.3679C411.741 85.6639 409.437 84.864 406.429 83.968C402.077 82.624 398.525 81.2799 395.773 79.9359C393.021 78.5919 390.653 76.608 388.669 73.984C386.685 71.36 385.693 67.936 385.693 63.712C385.693 57.44 387.965 52.5439 392.509 49.0239C397.053 45.4399 402.973 43.6479 410.269 43.6479C417.693 43.6479 423.677 45.4399 428.221 49.0239C432.765 52.5439 435.197 57.4719 435.517 63.8079H417.757C417.629 61.6319 416.829 59.936 415.357 58.72C413.885 57.44 411.997 56.7999 409.693 56.7999C407.709 56.7999 406.109 57.3439 404.893 58.4319C403.677 59.4559 403.069 60.96 403.069 62.944C403.069 65.12 404.093 66.8159 406.141 68.0319C408.189 69.2479 411.389 70.56 415.741 71.968C420.093 73.44 423.613 74.848 426.301 76.192C429.053 77.536 431.421 79.4879 433.405 82.0479C435.389 84.6079 436.381 87.9039 436.381 91.9359C436.381 95.7759 435.389 99.264 433.405 102.4C431.485 105.536 428.669 108.032 424.957 109.888C421.245 111.744 416.861 112.672 411.805 112.672ZM496.979 84.3519C496.979 85.8879 496.883 87.4879 496.691 89.152H459.539C459.795 92.4799 460.851 95.04 462.707 96.832C464.627 98.56 466.963 99.424 469.715 99.424C473.811 99.424 476.659 97.6959 478.259 94.2399H495.731C494.835 97.7599 493.203 100.928 490.835 103.744C488.531 106.56 485.619 108.768 482.099 110.368C478.579 111.968 474.643 112.768 470.291 112.768C465.043 112.768 460.371 111.648 456.275 109.408C452.179 107.168 448.979 103.968 446.675 99.8079C444.371 95.6479 443.219 90.784 443.219 85.216C443.219 79.648 444.339 74.784 446.579 70.624C448.883 66.464 452.083 63.2639 456.179 61.0239C460.275 58.7839 464.979 57.664 470.291 57.664C475.475 57.664 480.083 58.752 484.115 60.928C488.147 63.104 491.283 66.2079 493.523 70.2399C495.827 74.2719 496.979 78.9759 496.979 84.3519ZM480.179 80.0319C480.179 77.216 479.219 74.9759 477.299 73.3119C475.379 71.6479 472.979 70.816 470.099 70.816C467.347 70.816 465.011 71.616 463.091 73.216C461.235 74.816 460.083 77.0879 459.635 80.0319H480.179ZM502.376 85.12C502.376 79.616 503.4 74.784 505.448 70.624C507.56 66.464 510.408 63.2639 513.992 61.0239C517.576 58.7839 521.576 57.664 525.992 57.664C529.768 57.664 533.064 58.4319 535.88 59.9679C538.76 61.5039 540.968 63.5199 542.504 66.0159V58.4319H558.92V112H542.504V104.416C540.904 106.912 538.664 108.928 535.784 110.464C532.968 112 529.672 112.768 525.896 112.768C521.544 112.768 517.576 111.648 513.992 109.408C510.408 107.104 507.56 103.872 505.448 99.7119C503.4 95.4879 502.376 90.624 502.376 85.12ZM542.504 85.216C542.504 81.12 541.352 77.8879 539.048 75.5199C536.808 73.1519 534.056 71.968 530.792 71.968C527.528 71.968 524.744 73.1519 522.44 75.5199C520.2 77.8239 519.08 81.024 519.08 85.12C519.08 89.216 520.2 92.48 522.44 94.912C524.744 97.28 527.528 98.4639 530.792 98.4639C534.056 98.4639 536.808 97.28 539.048 94.912C541.352 92.544 542.504 89.312 542.504 85.216Z" fill="#1A86C6"/>
</svg>
