<svg width="24" height="24" viewBox="0 0 24 24" fill="none" xmlns="http://www.w3.org/2000/svg">
<path d="M5.1 21C4.4 21 3.85433 20.725 3.463 20.175C3.07167 19.625 2.984 19.025 3.2 18.375L5 13L3.2 7.625C2.98333 6.975 3.071 6.375 3.463 5.825C3.855 5.275 4.40067 5 5.1 5H15.7L16.725 2.175C16.8417 1.84167 17.0543 1.60433 17.363 1.463C17.6717 1.32167 17.9923 1.309 18.325 1.425C18.6577 1.541 18.8953 1.75367 19.038 2.063C19.1807 2.37233 19.193 2.693 19.075 3.025L18.35 5H18.9C19.6 5 20.146 5.275 20.538 5.825C20.93 6.375 21.0173 6.975 20.8 7.625L19 13L20.8 18.375C21.0167 19.025 20.929 19.625 20.537 20.175C20.145 20.725 19.5993 21 18.9 21H5.1ZM11 17H13V14H16V12H13V9H11V12H8V14H11V17ZM5.1 19H18.9L16.9 13L18.9 7H5.1L7.1 13L5.1 19Z" fill="black"/>
</svg>
