<svg width="20" height="17" viewBox="0 0 20 17" fill="none" xmlns="http://www.w3.org/2000/svg">
<path d="M20 2.61527C19.2645 2.94118 18.4744 3.16138 17.6438 3.26092C18.4911 2.75356 19.1412 1.94849 19.4477 0.990154C18.655 1.46051 17.7768 1.80227 16.8422 1.98548C16.0935 1.18922 15.0277 0.690674 13.8474 0.690674C11.582 0.690674 9.7446 2.52807 9.7446 4.79531C9.7446 5.11593 9.7816 5.42774 9.8503 5.72899C6.43883 5.55723 3.41672 3.9233 1.39258 1.44113C1.04025 2.0489 0.83766 2.75356 0.83766 3.50402C0.83766 4.92744 1.56258 6.18437 2.66273 6.91987C1.98978 6.89787 1.35735 6.71377 0.80419 6.40634V6.45919C0.80419 8.44717 2.21792 10.1058 4.09583 10.4828C3.75055 10.5762 3.38853 10.6255 3.01506 10.6255C2.75081 10.6255 2.49273 10.6009 2.24258 10.5533C2.76491 12.1828 4.27993 13.3702 6.07593 13.4019C4.67101 14.5029 2.90144 15.1591 0.97948 15.1591C0.64829 15.1591 0.3215 15.1397 0 15.1019C1.81626 16.2672 3.97252 16.9454 6.28909 16.9454C13.8378 16.9454 17.9644 10.6933 17.9644 5.27096C17.9644 5.09479 17.96 4.91687 17.9521 4.7407C18.7536 4.16112 19.4495 3.43972 19.9982 2.61791L20 2.61527Z" fill="white"/>
</svg>
