<svg width="24" height="24" viewBox="0 0 24 24" fill="none" xmlns="http://www.w3.org/2000/svg">
<path d="M2 20V19C2 17.1435 2.7375 15.363 4.05025 14.0503C5.36301 12.7375 7.14348 12 9 12" stroke="#8FC641" stroke-width="1.5" stroke-linecap="round" stroke-linejoin="round"/>
<path d="M15.804 12.314C15.9558 12.1479 16.1405 12.0152 16.3465 11.9244C16.5524 11.8336 16.7749 11.7867 17 11.7867C17.225 11.7867 17.4476 11.8336 17.6535 11.9244C17.8595 12.0152 18.0442 12.1479 18.196 12.314C18.521 12.67 18.986 12.863 19.468 12.84C19.6929 12.8298 19.9175 12.8665 20.1274 12.9479C20.3373 13.0293 20.528 13.1536 20.6872 13.3128C20.8464 13.472 20.9707 13.6627 21.0521 13.8726C21.1335 14.0825 21.1702 14.3071 21.16 14.532C21.137 15.013 21.33 15.479 21.686 15.804C22.391 16.446 22.391 17.554 21.686 18.196C21.33 18.521 21.137 18.986 21.16 19.468C21.1702 19.6929 21.1335 19.9175 21.0521 20.1274C20.9707 20.3373 20.8464 20.528 20.6872 20.6872C20.528 20.8464 20.3373 20.9707 20.1274 21.0521C19.9175 21.1335 19.6929 21.1702 19.468 21.16C19.2304 21.1489 18.9932 21.1903 18.7734 21.2812C18.5535 21.3721 18.3564 21.5103 18.196 21.686C18.0442 21.8521 17.8595 21.9848 17.6535 22.0756C17.4476 22.1664 17.225 22.2133 17 22.2133C16.7749 22.2133 16.5524 22.1664 16.3465 22.0756C16.1405 21.9848 15.9558 21.8521 15.804 21.686C15.6436 21.5103 15.4465 21.3721 15.2266 21.2812C15.0068 21.1903 14.7696 21.1489 14.532 21.16C14.3071 21.1702 14.0825 21.1335 13.8726 21.0521C13.6627 20.9707 13.472 20.8464 13.3128 20.6872C13.1536 20.528 13.0293 20.3373 12.9479 20.1274C12.8665 19.9175 12.8298 19.6929 12.84 19.468C12.851 19.2303 12.8094 18.9931 12.7184 18.7732C12.6273 18.5534 12.4889 18.3563 12.313 18.196C12.1468 18.0442 12.0142 17.8595 11.9234 17.6535C11.8326 17.4476 11.7857 17.225 11.7857 17C11.7857 16.775 11.8326 16.5524 11.9234 16.3465C12.0142 16.1405 12.1468 15.9558 12.313 15.804C12.67 15.479 12.863 15.014 12.84 14.532C12.8298 14.3071 12.8665 14.0825 12.9479 13.8726C13.0293 13.6627 13.1536 13.472 13.3128 13.3128C13.472 13.1536 13.6627 13.0293 13.8726 12.9479C14.0825 12.8665 14.3071 12.8298 14.532 12.84C15.013 12.863 15.479 12.67 15.804 12.313V12.314Z" stroke="#8FC641" stroke-width="1.5"/>
<path d="M15.364 17L16.454 18.09L18.636 15.91M9 12C10.0609 12 11.0783 11.5786 11.8284 10.8284C12.5786 10.0783 13 9.06087 13 8C13 6.93913 12.5786 5.92172 11.8284 5.17157C11.0783 4.42143 10.0609 4 9 4C7.93913 4 6.92172 4.42143 6.17157 5.17157C5.42143 5.92172 5 6.93913 5 8C5 9.06087 5.42143 10.0783 6.17157 10.8284C6.92172 11.5786 7.93913 12 9 12Z" stroke="#8FC641" stroke-width="1.5" stroke-linecap="round" stroke-linejoin="round"/>
</svg>
