<svg width="22" height="17" viewBox="0 0 22 17" fill="none" xmlns="http://www.w3.org/2000/svg">
<path fill-rule="evenodd" clip-rule="evenodd" d="M19.5949 1.15066C20.5421 1.4042 21.2865 2.14852 21.54 3.09568C21.9982 4.81069 22 8.39107 22 8.39107C22 8.39107 22 11.9714 21.54 13.6864C21.2865 14.6336 20.5421 15.3779 19.5949 15.6314C17.88 16.0914 11 16.0914 11 16.0914C11 16.0914 4.12002 16.0914 2.405 15.6314C1.45785 15.3779 0.71353 14.6336 0.45999 13.6864C2.98023e-08 11.9714 0 8.39107 0 8.39107C0 8.39107 2.98023e-08 4.81069 0.45999 3.09568C0.71353 2.14852 1.45785 1.4042 2.405 1.15066C4.12002 0.690674 11 0.690674 11 0.690674C11 0.690674 17.88 0.690674 19.5949 1.15066ZM14.5134 8.39137L8.79788 11.691V5.09168L14.5134 8.39137Z" fill="white"/>
</svg>
